<mxfile host="app.diagrams.net" modified="2024-02-05T21:02:01.336Z" agent="Mozilla/5.0 (Macintosh; Intel Mac OS X 10.15; rv:122.0) Gecko/20100101 Firefox/122.0" etag="gz4s_mSbowVvHyS81u7f" version="23.1.1" type="device">
  <diagram name="Page-1" id="650XvY37gCv_VNDG9vCg">
    <mxGraphModel dx="1266" dy="658" grid="1" gridSize="10" guides="1" tooltips="1" connect="1" arrows="1" fold="1" page="1" pageScale="1" pageWidth="850" pageHeight="1100" math="0" shadow="0">
      <root>
        <mxCell id="0" />
        <mxCell id="1" parent="0" />
        <mxCell id="9l4oot3ggPBuZf4lOwHK-32" style="edgeStyle=orthogonalEdgeStyle;rounded=0;orthogonalLoop=1;jettySize=auto;html=1;entryX=0.5;entryY=0;entryDx=0;entryDy=0;" edge="1" parent="1" source="9l4oot3ggPBuZf4lOwHK-4" target="9l4oot3ggPBuZf4lOwHK-13">
          <mxGeometry relative="1" as="geometry">
            <Array as="points">
              <mxPoint x="245" y="320" />
              <mxPoint x="245" y="320" />
            </Array>
          </mxGeometry>
        </mxCell>
        <mxCell id="9l4oot3ggPBuZf4lOwHK-34" value="host metrics" style="edgeLabel;html=1;align=center;verticalAlign=middle;resizable=0;points=[];" vertex="1" connectable="0" parent="9l4oot3ggPBuZf4lOwHK-32">
          <mxGeometry x="-0.56" y="-1" relative="1" as="geometry">
            <mxPoint x="1" y="9" as="offset" />
          </mxGeometry>
        </mxCell>
        <mxCell id="9l4oot3ggPBuZf4lOwHK-4" value="" style="rounded=0;whiteSpace=wrap;html=1;" vertex="1" parent="1">
          <mxGeometry x="230" y="120" width="430" height="190" as="geometry" />
        </mxCell>
        <mxCell id="9l4oot3ggPBuZf4lOwHK-5" value="" style="group" vertex="1" connectable="0" parent="1">
          <mxGeometry x="290" y="110" width="350" height="180" as="geometry" />
        </mxCell>
        <mxCell id="9l4oot3ggPBuZf4lOwHK-2" value="" style="rounded=0;whiteSpace=wrap;html=1;" vertex="1" parent="9l4oot3ggPBuZf4lOwHK-5">
          <mxGeometry x="-40" y="60" width="390" height="120" as="geometry" />
        </mxCell>
        <mxCell id="9l4oot3ggPBuZf4lOwHK-3" value="Application" style="text;html=1;strokeColor=none;fillColor=none;align=center;verticalAlign=middle;whiteSpace=wrap;rounded=0;" vertex="1" parent="9l4oot3ggPBuZf4lOwHK-5">
          <mxGeometry x="96.86999999999999" y="58.13" width="116.25" height="63.75" as="geometry" />
        </mxCell>
        <mxCell id="9l4oot3ggPBuZf4lOwHK-7" value="&lt;div&gt;Metric Library&lt;br&gt;&lt;/div&gt;" style="html=1;whiteSpace=wrap;" vertex="1" parent="9l4oot3ggPBuZf4lOwHK-5">
          <mxGeometry x="-20" y="110" width="110" height="50" as="geometry" />
        </mxCell>
        <mxCell id="9l4oot3ggPBuZf4lOwHK-6" value="&lt;div&gt;Logging library&lt;/div&gt;" style="html=1;whiteSpace=wrap;" vertex="1" parent="9l4oot3ggPBuZf4lOwHK-5">
          <mxGeometry x="100" y="110" width="110" height="50" as="geometry" />
        </mxCell>
        <mxCell id="9l4oot3ggPBuZf4lOwHK-8" value="Tracing Library" style="html=1;whiteSpace=wrap;" vertex="1" parent="9l4oot3ggPBuZf4lOwHK-5">
          <mxGeometry x="220" y="110" width="110" height="50" as="geometry" />
        </mxCell>
        <mxCell id="9l4oot3ggPBuZf4lOwHK-10" value="Bare Metal / VM / Pod / Container" style="text;html=1;strokeColor=none;fillColor=none;align=center;verticalAlign=middle;whiteSpace=wrap;rounded=0;" vertex="1" parent="9l4oot3ggPBuZf4lOwHK-5">
          <mxGeometry x="59.989999999999995" y="20" width="190" height="30" as="geometry" />
        </mxCell>
        <mxCell id="9l4oot3ggPBuZf4lOwHK-26" style="edgeStyle=orthogonalEdgeStyle;rounded=0;orthogonalLoop=1;jettySize=auto;html=1;entryX=0.5;entryY=0;entryDx=0;entryDy=0;" edge="1" parent="1" source="9l4oot3ggPBuZf4lOwHK-11" target="9l4oot3ggPBuZf4lOwHK-25">
          <mxGeometry relative="1" as="geometry" />
        </mxCell>
        <mxCell id="9l4oot3ggPBuZf4lOwHK-11" value="Log collector" style="html=1;whiteSpace=wrap;" vertex="1" parent="1">
          <mxGeometry x="390" y="360" width="110" height="50" as="geometry" />
        </mxCell>
        <mxCell id="9l4oot3ggPBuZf4lOwHK-39" style="edgeStyle=orthogonalEdgeStyle;rounded=0;orthogonalLoop=1;jettySize=auto;html=1;entryX=0.5;entryY=0;entryDx=0;entryDy=0;" edge="1" parent="1" source="9l4oot3ggPBuZf4lOwHK-13" target="9l4oot3ggPBuZf4lOwHK-30">
          <mxGeometry relative="1" as="geometry" />
        </mxCell>
        <mxCell id="9l4oot3ggPBuZf4lOwHK-13" value="&lt;div&gt;Metric agent&lt;/div&gt;" style="html=1;whiteSpace=wrap;" vertex="1" parent="1">
          <mxGeometry x="190" y="360" width="110" height="50" as="geometry" />
        </mxCell>
        <mxCell id="9l4oot3ggPBuZf4lOwHK-40" style="edgeStyle=orthogonalEdgeStyle;rounded=0;orthogonalLoop=1;jettySize=auto;html=1;entryX=0.5;entryY=0;entryDx=0;entryDy=0;" edge="1" parent="1" source="9l4oot3ggPBuZf4lOwHK-14" target="9l4oot3ggPBuZf4lOwHK-31">
          <mxGeometry relative="1" as="geometry" />
        </mxCell>
        <mxCell id="9l4oot3ggPBuZf4lOwHK-14" value="Tracing agent" style="html=1;whiteSpace=wrap;" vertex="1" parent="1">
          <mxGeometry x="590" y="360" width="110" height="50" as="geometry" />
        </mxCell>
        <mxCell id="9l4oot3ggPBuZf4lOwHK-17" style="edgeStyle=orthogonalEdgeStyle;rounded=0;orthogonalLoop=1;jettySize=auto;html=1;entryX=1;entryY=0.5;entryDx=0;entryDy=0;" edge="1" parent="1" source="9l4oot3ggPBuZf4lOwHK-7" target="9l4oot3ggPBuZf4lOwHK-13">
          <mxGeometry relative="1" as="geometry" />
        </mxCell>
        <mxCell id="9l4oot3ggPBuZf4lOwHK-23" value="application metrics" style="edgeLabel;html=1;align=center;verticalAlign=middle;resizable=0;points=[];" vertex="1" connectable="0" parent="9l4oot3ggPBuZf4lOwHK-17">
          <mxGeometry x="0.0889" y="-2" relative="1" as="geometry">
            <mxPoint x="-3" y="-6" as="offset" />
          </mxGeometry>
        </mxCell>
        <mxCell id="9l4oot3ggPBuZf4lOwHK-19" style="edgeStyle=orthogonalEdgeStyle;rounded=0;orthogonalLoop=1;jettySize=auto;html=1;entryX=0;entryY=0.5;entryDx=0;entryDy=0;" edge="1" parent="1" source="9l4oot3ggPBuZf4lOwHK-8" target="9l4oot3ggPBuZf4lOwHK-14">
          <mxGeometry relative="1" as="geometry">
            <Array as="points">
              <mxPoint x="565" y="385" />
            </Array>
          </mxGeometry>
        </mxCell>
        <mxCell id="9l4oot3ggPBuZf4lOwHK-24" value="&lt;div&gt;application traces&lt;/div&gt;" style="edgeLabel;html=1;align=center;verticalAlign=middle;resizable=0;points=[];" vertex="1" connectable="0" parent="9l4oot3ggPBuZf4lOwHK-19">
          <mxGeometry x="-0.0154" y="1" relative="1" as="geometry">
            <mxPoint x="-1" y="6" as="offset" />
          </mxGeometry>
        </mxCell>
        <mxCell id="9l4oot3ggPBuZf4lOwHK-44" style="edgeStyle=orthogonalEdgeStyle;rounded=0;orthogonalLoop=1;jettySize=auto;html=1;entryX=1;entryY=0.5;entryDx=0;entryDy=0;" edge="1" parent="1" source="9l4oot3ggPBuZf4lOwHK-25" target="9l4oot3ggPBuZf4lOwHK-30">
          <mxGeometry relative="1" as="geometry" />
        </mxCell>
        <mxCell id="9l4oot3ggPBuZf4lOwHK-46" style="edgeStyle=orthogonalEdgeStyle;rounded=0;orthogonalLoop=1;jettySize=auto;html=1;" edge="1" parent="1" source="9l4oot3ggPBuZf4lOwHK-25" target="9l4oot3ggPBuZf4lOwHK-31">
          <mxGeometry relative="1" as="geometry" />
        </mxCell>
        <mxCell id="9l4oot3ggPBuZf4lOwHK-25" value="Log aggregator" style="html=1;whiteSpace=wrap;" vertex="1" parent="1">
          <mxGeometry x="390" y="480" width="110" height="50" as="geometry" />
        </mxCell>
        <mxCell id="9l4oot3ggPBuZf4lOwHK-43" style="edgeStyle=orthogonalEdgeStyle;rounded=0;orthogonalLoop=1;jettySize=auto;html=1;entryX=0;entryY=0.5;entryDx=0;entryDy=0;" edge="1" parent="1" source="9l4oot3ggPBuZf4lOwHK-30" target="9l4oot3ggPBuZf4lOwHK-25">
          <mxGeometry relative="1" as="geometry" />
        </mxCell>
        <mxCell id="9l4oot3ggPBuZf4lOwHK-45" value="&lt;div&gt;no&lt;/div&gt;&lt;div&gt;correlation&lt;br&gt;&lt;/div&gt;" style="edgeLabel;html=1;align=center;verticalAlign=middle;resizable=0;points=[];" vertex="1" connectable="0" parent="9l4oot3ggPBuZf4lOwHK-43">
          <mxGeometry x="0.0667" y="-5" relative="1" as="geometry">
            <mxPoint x="2" y="-5" as="offset" />
          </mxGeometry>
        </mxCell>
        <mxCell id="9l4oot3ggPBuZf4lOwHK-30" value="Metric platform" style="html=1;whiteSpace=wrap;" vertex="1" parent="1">
          <mxGeometry x="190" y="480" width="110" height="50" as="geometry" />
        </mxCell>
        <mxCell id="9l4oot3ggPBuZf4lOwHK-47" style="edgeStyle=orthogonalEdgeStyle;rounded=0;orthogonalLoop=1;jettySize=auto;html=1;entryX=1;entryY=0.5;entryDx=0;entryDy=0;" edge="1" parent="1" source="9l4oot3ggPBuZf4lOwHK-31" target="9l4oot3ggPBuZf4lOwHK-25">
          <mxGeometry relative="1" as="geometry" />
        </mxCell>
        <mxCell id="9l4oot3ggPBuZf4lOwHK-48" value="&lt;div&gt;no&lt;/div&gt;&lt;div&gt;correlation&lt;/div&gt;" style="edgeLabel;html=1;align=center;verticalAlign=middle;resizable=0;points=[];" vertex="1" connectable="0" parent="9l4oot3ggPBuZf4lOwHK-47">
          <mxGeometry x="0.4" relative="1" as="geometry">
            <mxPoint x="16" as="offset" />
          </mxGeometry>
        </mxCell>
        <mxCell id="9l4oot3ggPBuZf4lOwHK-31" value="Tracing platform" style="html=1;whiteSpace=wrap;" vertex="1" parent="1">
          <mxGeometry x="590" y="480" width="110" height="50" as="geometry" />
        </mxCell>
        <mxCell id="9l4oot3ggPBuZf4lOwHK-35" style="edgeStyle=orthogonalEdgeStyle;rounded=0;orthogonalLoop=1;jettySize=auto;html=1;entryX=0.5;entryY=0;entryDx=0;entryDy=0;" edge="1" parent="1" source="9l4oot3ggPBuZf4lOwHK-6" target="9l4oot3ggPBuZf4lOwHK-11">
          <mxGeometry relative="1" as="geometry" />
        </mxCell>
        <mxCell id="9l4oot3ggPBuZf4lOwHK-36" value="application logs" style="edgeLabel;html=1;align=center;verticalAlign=middle;resizable=0;points=[];" vertex="1" connectable="0" parent="9l4oot3ggPBuZf4lOwHK-35">
          <mxGeometry x="0.2" y="5" relative="1" as="geometry">
            <mxPoint x="15" y="6" as="offset" />
          </mxGeometry>
        </mxCell>
        <mxCell id="9l4oot3ggPBuZf4lOwHK-37" style="edgeStyle=orthogonalEdgeStyle;rounded=0;orthogonalLoop=1;jettySize=auto;html=1;" edge="1" parent="1" source="9l4oot3ggPBuZf4lOwHK-4" target="9l4oot3ggPBuZf4lOwHK-11">
          <mxGeometry relative="1" as="geometry">
            <Array as="points">
              <mxPoint x="400" y="340" />
              <mxPoint x="400" y="340" />
            </Array>
          </mxGeometry>
        </mxCell>
        <mxCell id="9l4oot3ggPBuZf4lOwHK-38" value="&lt;div&gt;host logs&lt;/div&gt;" style="edgeLabel;html=1;align=center;verticalAlign=middle;resizable=0;points=[];" vertex="1" connectable="0" parent="9l4oot3ggPBuZf4lOwHK-37">
          <mxGeometry x="-0.617" y="-2" relative="1" as="geometry">
            <mxPoint y="11" as="offset" />
          </mxGeometry>
        </mxCell>
      </root>
    </mxGraphModel>
  </diagram>
</mxfile>
